<svg width="690" height="168" viewBox="0 0 690 168" fill="none" xmlns="http://www.w3.org/2000/svg">
  <rect width="168" height="168" rx="36" fill="#0F172A"/>
  <path d="M36 92L84 52L132 92" stroke="#67E8F9" stroke-width="10" stroke-linecap="round" stroke-linejoin="round"/>
  <path d="M52 86V122C52 125.314 54.6863 128 58 128H110C113.314 128 116 125.314 116 122V86" stroke="#F8FAFC" stroke-width="10" stroke-linecap="round"/>
  <path d="M68 128V98C68 94.6863 70.6863 92 74 92H94C97.3137 92 100 94.6863 100 98V128" fill="#F59E0B"/>
  <circle cx="128" cy="56" r="14" fill="#F59E0B"/>
  <path d="M128 48V64" stroke="#0F172A" stroke-width="6" stroke-linecap="round"/>
  <path d="M120 56H136" stroke="#0F172A" stroke-width="6" stroke-linecap="round"/>
  <path d="M206 62H366.822V80.2727H289.364V97.8182H360.549V115.273H289.364V150H266.909V62H206Z" fill="#0F172A"/>
  <path d="M396.589 150H373.68L403.362 62H430.91L460.536 150H437.627L417.5 84.6364H416.818L396.589 150ZM395.157 115.409H438.955V132.864H395.157V115.409Z" fill="#0F172A"/>
  <path d="M507.336 151.705C498.303 151.705 490.552 149.939 484.08 146.409C477.664 142.879 472.727 137.827 469.268 131.25C465.852 124.616 464.144 116.727 464.144 107.585C464.144 98.4432 465.852 90.5682 469.268 83.9602C472.727 77.2955 477.664 72.2159 484.08 68.7216C490.552 65.1913 498.303 63.4261 507.336 63.4261C515.118 63.4261 521.948 64.8447 527.824 67.6818C533.756 70.5189 538.438 74.5341 541.87 79.7273C545.344 84.9205 547.21 91.017 547.466 98.017H525.679C525.21 93.642 523.474 90.1136 520.472 87.4318C517.511 84.75 513.602 83.4091 508.744 83.4091C504.626 83.4091 501.024 84.5369 497.938 86.7926C494.894 89.0057 492.524 92.2557 490.83 96.5426C489.136 100.83 488.29 106.042 488.29 112.179C488.29 118.432 489.136 123.73 490.83 128.074C492.566 132.361 494.965 135.64 498.028 137.912C501.095 140.168 504.667 141.295 508.744 141.295C511.763 141.295 514.466 140.682 516.852 139.455C519.281 138.227 521.271 136.463 522.824 134.159C524.421 131.856 525.381 129.068 525.705 125.795H547.466C547.168 132.739 545.33 138.836 541.955 144.086C538.58 149.28 533.955 153.338 528.08 156.261C522.245 159.114 515.331 160.541 507.336 160.541V151.705Z" fill="#0F172A"/>
  <path d="M557.062 150V62H591.79C598.952 62 605.062 63.3636 610.119 66.0909C615.176 68.8182 619.048 72.6903 621.733 77.7074C624.46 82.6818 625.824 88.5511 625.824 95.3153C625.824 102.136 624.446 108.006 621.687 112.923C618.93 117.84 614.933 121.615 609.699 124.247C604.509 126.878 598.215 128.193 590.818 128.193H571.261V110.739H587.307C590.945 110.739 593.968 110.241 596.375 109.247C598.783 108.253 600.577 106.764 601.756 104.778C602.977 102.792 603.587 99.6378 603.587 95.3153C603.587 91.0369 602.977 87.8409 601.756 85.7273C600.577 83.6136 598.768 82.0398 596.33 81.0057C593.933 79.929 590.888 79.3906 587.193 79.3906H579.517V150H557.062Z" fill="#0F172A"/>
</svg>
